<?xml version="1.0" standalone="no"?><!DOCTYPE svg PUBLIC "-//W3C//DTD SVG 1.1//EN" "http://www.w3.org/Graphics/SVG/1.1/DTD/svg11.dtd"><svg t="1748568754741" class="icon" viewBox="0 0 1119 1024" version="1.1" xmlns="http://www.w3.org/2000/svg" p-id="22936" xmlns:xlink="http://www.w3.org/1999/xlink" width="218.5546875" height="200"><path d="M1049.158285 93.09074H315.137801C269.988792 0 242.527024 0 232.752496 0H67.516433A67.490786 67.490786 0 0 0 0.025647 67.490786v887.154751A67.490786 67.490786 0 0 0 67.516433 1023.998138h981.641852A67.490786 67.490786 0 0 0 1117.114525 954.645537v-791.271289A67.490786 67.490786 0 0 0 1049.158285 93.09074zM67.516433 46.54537h162.908795A302.079451 302.079451 0 0 1 279.297866 127.999767a23.272685 23.272685 0 0 0 20.945417 11.636343h748.915002a20.945416 20.945416 0 0 1 20.945416 20.945416V279.27222H46.571017V67.490786A20.945416 20.945416 0 0 1 67.516433 46.54537z m981.641852 930.907398H67.516433a20.945416 20.945416 0 0 1-20.945416-22.807231V325.817589h1023.998138v628.362494a20.945416 20.945416 0 0 1-21.41087 23.272685z" fill="#231F20" p-id="22937"></path><path d="M837.842305 418.908329H279.297866a43.752648 43.752648 0 0 0-44.218101 43.287194v381.672034A43.752648 43.752648 0 0 0 279.297866 884.362028h558.544439a43.752648 43.752648 0 0 0 44.218102-43.287194V460.799162A43.752648 43.752648 0 0 0 837.842305 418.908329zM279.297866 465.453699l558.544439-4.654537v200.610545L760.576991 558.544439a22.341778 22.341778 0 0 0-19.083602-9.774528 23.272685 23.272685 0 0 0-19.083601 10.239982l-78.661675 117.759786-55.854444-71.67987a23.272685 23.272685 0 0 0-18.152695-8.84362 23.272685 23.272685 0 0 0-18.152694 9.309074l-182.45785 237.381386H282.090588z m148.47973 377.48295l139.63611-186.181479 56.785351 73.07623a22.341778 22.341778 0 0 0 19.083602 8.843621 23.272685 23.272685 0 0 0 18.618148-10.239982l78.196221-117.294332 93.09074 129.396128V837.816659z" fill="#231F20" p-id="22938"></path><path d="M410.090356 674.44241a76.79986 76.79986 0 1 0-79.592583-76.79986 78.196221 78.196221 0 0 0 79.592583 76.79986z m0-107.054351a30.25449 30.25449 0 1 1-33.047213 30.254491 31.650852 31.650852 0 0 1 33.047213-30.254491z" fill="#231F20" p-id="22939"></path></svg>